# xmcd CD database file
#
# Track frame offsets:
#	150
#	11015
#	22421
#	31913
#	44047
#	55182
#	65558
#	75879
#	87367
#	98744
#	109250
#	118181
#	128595
#	137807
#	147984
#	159306
#	171499
#	182232
#	193929
#	206373
#	216080
#	228387
#	238949
#	249119
#	261883
#	272077
#	282721
#	296945
#	309196
#	320716
#	332625
#	343051
#
# Disc length: 4709 seconds
#
# Revision: 0
# Processed by: cddbd v1.5.1PL2 Copyright (c) Steve Scherf et al.
# Submitted via: Feurio! 1.68 - http://www.feurio.com
#
DISCID=f0126320
DTITLE=Various Artist - The Old Guard: Country Goes Rock 'n' Roll, Volume 1
DYEAR=1900
DGENRE=
TTITLE0=The Carlisles - Doggie Joe
TTITLE1=Merle Travis - I'll Have Myself A Ball
TTITLE2=Carl Smith - Go, Boy Go
TTITLE3=Jack Rhodes and His Lone Star Buddies - Eternity
TTITLE4=Moon Mullican - Rocket To The Moon
TTITLE5=Tennessee Ernie - Catfish Boogie
TTITLE6=Tennessee Drifters - Boogie Woogie Baby
TTITLE7=Marty Robbins - That's All Right
TTITLE8=Maddox Brothers and Rose - You Won't Believe This
TTITLE9=Grady Martin and HIs Slew Foot Five - Long John Boogie
TTITLE10=Eddy Arnold - Hep Cat Baby
TTITLE11=Little Jimmy Dickens - Salty Boogie
TTITLE12=Bob Wills and His Texas Playboys - Cadillac In Model 'A'
TTITLE13=Hawkshaw Hawkins - Waitin' For My Baby (Rock Rock)
TTITLE14=Jimmy Atkins and His Pinetoppers - Juke Joint Johnny
TTITLE15=Tillman Franks and His Rainbow Boys - Hayride Boogie
TTITLE16=Faron Young - If You Ain't Lovin' (You Ain't Livin')
TTITLE17=Red Foley - Pin Ball Boogie
TTITLE18=Tex Zario - Go Man Go, Get Gone
TTITLE19=Tommy Scott and His Ramblers - Cat Music
TTITLE20=Jim Gatlin - Would It Matter At All ?
TTITLE21=Wade Ray - Idaho Red
TTITLE22=Skeets McDonald - Look Who's Cryin' Now
TTITLE23=Malcolm Yelvington - Drinkin' Wine Spodee-O-Dee
TTITLE24=Cliffie Stone Orchestra - Barracuda
TTITLE25=Hardrock Gunter - Gonna Dance All Night
TTITLE26=Harmonica Frank - Rockin' Chair Daddy
TTITLE27=Johnny Hicks - Pick Up Blues
TTITLE28=Jack Cardwell - Whiskey, Women and Loaded Dice
TTITLE29=Shorty Long - Who Said I Said That ?
TTITLE30=The Carlisles - Rattlesnake Daddy
TTITLE31=Grady Martin and His Winging Strings - Pork Chop Stomp
EXTD=Rev-Ola 129\r\n
EXTT0=
EXTT1=
EXTT2=
EXTT3=
EXTT4=
EXTT5=
EXTT6=
EXTT7=
EXTT8=
EXTT9=
EXTT10=
EXTT11=
EXTT12=
EXTT13=
EXTT14=
EXTT15=
EXTT16=
EXTT17=
EXTT18=
EXTT19=
EXTT20=
EXTT21=
EXTT22=
EXTT23=
EXTT24=
EXTT25=
EXTT26=
EXTT27=
EXTT28=
EXTT29=
EXTT30=
EXTT31=
PLAYORDER=
